<?xml version="1.0" standalone="no"?>
<!DOCTYPE svg PUBLIC "-//W3C//DTD SVG 20010904//EN"
 "http://www.w3.org/TR/2001/REC-SVG-20010904/DTD/svg10.dtd">
<svg version="1.0" xmlns="http://www.w3.org/2000/svg"
 width="512.000000pt" height="512.000000pt" viewBox="0 0 512.000000 512.000000"
 preserveAspectRatio="xMidYMid meet">
<metadata>
Created by potrace 1.11, written by Peter Selinger 2001-2013
</metadata>
<g transform="translate(0.000000,512.000000) scale(0.100000,-0.100000)"
fill="#000000" stroke="none">
<path d="M1448 4473 l-1108 -637 0 -242 0 -242 68 -39 67 -39 3 -954 2 -955
343 -196 342 -197 3 -83 3 -84 65 -38 c37 -20 70 -37 75 -37 4 0 9 34 11 75
l3 76 618 -355 617 -355 400 230 c220 126 407 232 415 235 13 5 15 -7 15 -70
0 -42 2 -76 5 -76 3 0 35 17 70 37 l64 37 3 84 3 83 552 317 553 317 2 1035 3
1034 68 39 67 39 0 162 0 162 -1109 637 c-609 350 -1110 637 -1112 637 -2 0
-502 -287 -1111 -637z m2148 -135 l1033 -593 0 -235 0 -235 -127 -72 -127 -72
-3 67 c-2 37 -6 70 -10 74 -4 4 -36 -10 -72 -30 l-65 -38 -5 -82 -5 -83 -65
-37 -65 -38 -5 -83 -5 -83 -62 -35 -63 -35 0 76 c0 42 -3 76 -7 76 -4 0 -37
-18 -75 -40 l-67 -40 -3 -81 -3 -81 -62 -35 -63 -35 0 156 c0 86 -2 156 -4
156 -2 0 -36 -18 -75 -41 l-70 -40 -3 -81 -3 -80 -57 -34 -58 -33 0 154 c0 85
-3 155 -6 155 -3 0 -37 -17 -75 -38 l-69 -37 0 -240 0 -240 -63 -37 -62 -36
-3 74 c-2 41 -7 74 -12 74 -5 0 -67 -33 -137 -74 l-128 -75 -3 75 c-2 41 -6
74 -10 74 -4 0 -36 -17 -72 -38 l-65 -38 -5 -82 -5 -83 -62 -35 -63 -35 0 80
0 79 -64 36 c-35 20 -67 36 -70 36 -3 0 -6 -34 -8 -75 l-3 -74 -132 76 -133
77 0 80 0 81 -69 38 c-38 20 -71 37 -75 37 -3 0 -6 -33 -8 -74 l-3 -74 -58 34
c-32 19 -62 34 -67 34 -6 0 -10 -33 -10 -74 l0 -75 -65 37 -65 37 0 80 0 81
-65 37 c-35 20 -67 37 -70 37 -3 0 -5 -34 -5 -75 0 -41 -2 -75 -4 -75 -3 0
-32 16 -65 35 l-61 36 0 158 0 159 -69 41 c-38 22 -72 41 -75 41 -3 0 -6 -34
-6 -75 0 -41 -2 -75 -4 -75 -3 0 -32 16 -65 36 l-61 36 0 159 0 158 -69 41
c-38 22 -72 40 -75 40 -3 0 -6 -106 -6 -236 l0 -235 -62 35 -63 35 -5 83 -5
82 -132 76 -132 75 -1 81 0 80 -70 40 -70 39 0 155 1 155 1032 592 c568 326
1034 593 1036 593 3 0 469 -267 1037 -592z m-3036 -1112 l55 -32 3 -72 c2 -40
0 -72 -3 -72 -4 0 -33 15 -66 33 l-59 32 0 73 c0 39 3 72 8 72 4 -1 32 -16 62
-34z m3653 -506 c-4 -4 -34 -22 -65 -39 l-58 -32 0 74 0 75 63 35 62 35 3 -70
c2 -39 -1 -74 -5 -78z m-3185 -315 l3 -77 -33 20 c-18 10 -48 28 -65 38 -33
18 -33 19 -33 92 l0 74 63 -35 62 -35 3 -77z m911 -130 l61 -36 0 -74 0 -74
-65 37 -65 37 0 73 c0 39 2 72 4 72 3 0 32 -16 65 -35z m879 -196 c-7 -5 -37
-22 -65 -39 l-53 -30 0 74 0 74 63 35 62 35 3 -71 c2 -50 -1 -73 -10 -78z
m1800 -81 c-7 -4 -37 -22 -65 -39 l-53 -31 0 75 0 75 63 35 62 35 3 -71 c2
-50 -1 -73 -10 -79z m-1368 -80 l0 -73 -59 -32 c-33 -18 -62 -33 -66 -33 -3 0
-5 32 -3 72 l3 72 55 32 c30 18 58 33 63 34 4 0 7 -33 7 -72z m550 -480 l0
-73 -59 -32 c-33 -18 -62 -33 -66 -33 -3 0 -5 32 -3 72 l3 72 55 32 c30 18 58
33 63 34 4 0 7 -33 7 -72z m-2269 -44 l59 -35 0 -70 c0 -38 -3 -69 -6 -69 -3
0 -32 15 -65 33 l-59 32 0 73 c0 39 3 72 6 72 4 0 33 -16 65 -36z m889 -421
c0 -40 -2 -73 -4 -73 -3 0 -32 16 -65 35 l-61 36 0 74 0 73 65 -36 64 -37 1
-72z"/>
</g>
</svg>
